<?xml version="1.0" standalone="no"?>
<!DOCTYPE svg PUBLIC "-//W3C//DTD SVG 20010904//EN"
 "http://www.w3.org/TR/2001/REC-SVG-20010904/DTD/svg10.dtd">
<svg version="1.0" xmlns="http://www.w3.org/2000/svg"
 width="400.000000pt" height="400.000000pt" viewBox="0 0 400.000000 400.000000"
 preserveAspectRatio="xMidYMid meet">

<g transform="translate(0.000000,400.000000) scale(0.100000,-0.100000)"
fill="#000000" stroke="none">
<path d="M1932 3790 c-309 -5 -324 -6 -338 -25 -20 -27 -12 -67 32 -158 l34
-72 0 -337 -1 -337 -43 -83 c-53 -101 -786 -1519 -882 -1707 -65 -127 -69
-139 -72 -211 -4 -86 12 -132 65 -182 55 -52 94 -62 276 -66 122 -3 171 -1
182 8 12 10 15 44 15 171 l0 159 45 0 45 0 0 -114 c0 -122 8 -144 50 -131 20
6 20 12 18 158 l-3 152 -110 0 -110 0 -3 -168 -2 -169 -143 4 c-121 3 -147 6
-177 24 -74 43 -99 127 -66 220 7 22 105 215 216 429 111 215 241 467 290 560
172 334 383 742 432 834 l49 94 -3 366 -3 366 -37 73 -36 72 329 0 c181 0 329
-2 329 -4 0 -2 -16 -37 -35 -78 l-36 -75 3 -374 3 -374 101 -190 c56 -104 280
-531 498 -948 313 -597 398 -768 402 -805 8 -66 -26 -128 -86 -162 -41 -22
-57 -25 -180 -27 l-135 -2 -5 87 -5 87 -102 50 -103 49 0 155 c0 146 1 156 22
178 72 77 -37 189 -117 120 -35 -29 -37 -88 -6 -121 20 -21 21 -33 21 -183 0
-89 3 -169 7 -178 3 -10 53 -39 110 -66 l103 -48 0 -90 c0 -79 2 -92 19 -101
26 -13 276 -13 340 1 131 28 215 163 182 294 -11 43 -864 1687 -954 1840 l-42
70 -3 360 -3 361 36 68 c39 76 46 133 18 158 -25 22 -69 24 -431 18z m706
-2443 c2 -19 -4 -30 -22 -43 -24 -15 -28 -15 -52 0 -33 22 -30 65 6 83 32 16
64 -3 68 -40z"/>
<path d="M2049 1847 c-43 -33 -47 -97 -8 -133 18 -16 19 -33 19 -320 l0 -303
-67 -3 -68 -3 -3 -112 -3 -113 -44 0 -45 0 0 324 c0 282 -2 327 -16 340 -19
20 -183 23 -202 4 -9 -9 -12 -108 -12 -385 l0 -373 -45 0 -45 0 0 247 c0 240
1 247 22 270 30 32 29 85 -2 118 -49 53 -140 19 -142 -53 -1 -32 25 -82 42
-82 6 0 10 -104 10 -280 0 -328 -10 -304 127 -298 61 2 86 7 93 18 6 9 10 169
10 385 l0 370 45 -3 45 -4 2 -331 3 -332 99 -3 c64 -2 103 1 112 9 10 8 14 39
14 115 l0 104 58 0 c32 0 63 5 70 12 9 9 12 97 12 335 l0 322 25 25 c34 34 35
94 2 124 -26 25 -82 29 -108 9z m86 -37 c27 -29 10 -74 -28 -78 -52 -6 -76 41
-40 80 21 24 45 23 68 -2z m-633 -427 c10 -9 18 -26 18 -38 0 -53 -77 -62 -95
-11 -8 24 -6 31 14 47 29 23 39 24 63 2z"/>
<path d="M2232 1538 c-9 -9 -12 -106 -12 -374 0 -357 0 -363 20 -369 49 -15
50 -6 50 351 l0 334 50 0 50 0 0 -272 c0 -150 4 -279 9 -286 4 -8 19 -12 32
-10 l24 3 3 309 c2 241 -1 311 -10 318 -21 13 -202 10 -216 -4z"/>
</g>
</svg>
