<?xml version="1.0" standalone="no"?>
<!DOCTYPE svg PUBLIC "-//W3C//DTD SVG 20010904//EN"
 "http://www.w3.org/TR/2001/REC-SVG-20010904/DTD/svg10.dtd">
<svg version="1.0" xmlns="http://www.w3.org/2000/svg"
 width="1200.000000pt" height="926.000000pt" viewBox="0 0 1200.000000 926.000000"
 preserveAspectRatio="xMidYMid meet">

<g transform="translate(0.000000,926.000000) scale(0.100000,-0.100000)"
fill="#000000" stroke="none">
<path d="M5765 8850 c-664 -32 -1313 -251 -1860 -629 -247 -170 -575 -475
-754 -701 -427 -538 -675 -1132 -763 -1830 -21 -164 -18 -680 5 -850 108 -809
454 -1527 1011 -2099 600 -614 1319 -974 2196 -1097 158 -23 701 -26 850 -6
668 90 1193 292 1702 655 374 267 724 646 967 1047 339 561 511 1182 511 1850
0 572 -120 1089 -371 1600 -243 495 -582 918 -1013 1262 -523 417 -1160 688
-1821 773 -99 13 -487 38 -505 33 -3 -1 -72 -4 -155 -8z m565 -294 c782 -88
1508 -444 2055 -1007 537 -553 855 -1226 947 -2004 19 -161 16 -587 -6 -750
-98 -753 -413 -1400 -936 -1926 -517 -519 -1162 -839 -1905 -945 -151 -21
-567 -30 -736 -15 -436 39 -865 163 -1254 365 -758 392 -1337 1044 -1634 1838
-285 764 -280 1620 16 2373 114 290 298 609 493 855 108 137 397 423 530 526
314 244 642 421 998 539 287 96 553 146 892 169 98 7 412 -4 540 -18z"/>
<path d="M6210 7545 l0 -697 68 7 c181 19 450 78 722 159 97 29 114 37 112 52
-2 11 -52 118 -112 239 -175 356 -312 569 -520 808 l-103 117 -68 0 c-37 0
-74 3 -83 6 -15 6 -16 -59 -16 -691z"/>
<path d="M5722 8213 c-52 -4 -52 -4 -138 -101 -227 -254 -386 -505 -578 -911
-59 -124 -75 -166 -65 -172 20 -12 360 -106 488 -135 106 -24 353 -64 394 -64
16 0 17 40 17 695 l0 695 -32 -2 c-18 -1 -57 -3 -86 -5z"/>
<path d="M6990 8087 c0 -21 430 -859 454 -885 10 -10 27 -6 92 21 149 64 455
227 492 261 10 10 -6 29 -82 95 -264 231 -503 387 -739 483 -52 21 -217 40
-217 25z"/>
<path d="M4965 8071 c-111 -10 -315 -104 -510 -234 -152 -101 -459 -356 -445
-369 3 -3 57 -34 120 -70 213 -122 457 -236 471 -221 21 23 459 880 459 898 0
3 -6 4 -12 3 -7 -1 -44 -4 -83 -7z"/>
<path d="M8105 7133 c-130 -78 -473 -261 -518 -276 -7 -2 11 -75 51 -203 132
-427 199 -725 245 -1089 l12 -100 533 -9 c293 -4 536 -5 540 -1 11 11 6 250
-8 355 -53 424 -234 842 -537 1240 -123 161 -139 180 -150 180 -4 -1 -80 -44
-168 -97z"/>
<path d="M3694 7123 c-243 -306 -393 -570 -499 -875 -77 -220 -114 -420 -122
-661 l-6 -159 464 6 c255 4 501 9 547 12 l82 6 0 28 c0 46 28 250 55 398 37
201 105 466 185 726 39 125 70 230 68 232 -2 1 -42 20 -88 42 -111 51 -316
162 -474 256 -69 42 -130 76 -134 76 -5 0 -40 -39 -78 -87z"/>
<path d="M7110 6683 c-228 -75 -523 -141 -763 -170 l-147 -18 0 -519 0 -519
197 6 c108 4 400 7 649 7 l453 0 -5 53 c-35 453 -99 755 -234 1105 -37 95 -34
94 -150 55z"/>
<path d="M4785 6602 c-132 -344 -197 -646 -230 -1069 l-7 -83 478 0 c264 0
557 -3 652 -7 l172 -6 -2 519 -3 519 -55 7 c-30 4 -93 12 -140 18 -226 29
-545 106 -816 195 -7 2 -27 -37 -49 -93z"/>
<path d="M8385 5058 c-258 -5 -470 -10 -471 -11 -1 -1 -11 -76 -22 -167 -42
-332 -152 -788 -280 -1160 l-19 -55 216 -111 c119 -61 277 -147 351 -193 l135
-81 40 46 c81 95 216 282 283 394 252 416 372 806 372 1205 l0 145 -67 -2
c-38 0 -279 -5 -538 -10z"/>
<path d="M6220 4541 l0 -521 23 -4 c12 -3 51 -8 87 -11 203 -19 549 -94 785
-169 61 -20 115 -36 120 -36 22 0 123 292 179 520 53 211 96 512 96 664 l0 61
-598 1 c-329 1 -619 4 -645 8 l-47 7 0 -520z"/>
<path d="M3056 5035 c-9 -24 -7 -133 5 -270 33 -387 173 -770 420 -1145 66
-102 187 -263 240 -322 l34 -38 86 54 c128 80 344 200 485 268 68 33 124 62
124 65 0 2 -29 97 -64 211 -79 255 -115 390 -160 597 -35 159 -86 481 -86 541
l0 32 -297 6 c-164 3 -407 8 -539 12 -218 5 -242 4 -248 -11z"/>
<path d="M5445 5029 c-170 -5 -446 -6 -613 -3 l-303 6 6 -78 c22 -276 51 -469
105 -684 38 -152 153 -490 166 -490 3 0 64 18 136 40 251 77 483 129 693 155
72 9 145 18 163 21 l32 5 -2 517 -3 517 -35 1 c-19 1 -174 -3 -345 -7z"/>
<path d="M6230 2971 l0 -692 82 3 82 3 89 99 c123 137 254 316 350 476 93 155
309 592 299 602 -9 9 -291 91 -422 123 -145 34 -307 63 -401 71 l-79 7 0 -692z"/>
<path d="M5685 3633 c-79 -10 -264 -47 -390 -79 -131 -33 -376 -103 -383 -109
-2 -2 35 -85 82 -184 184 -392 380 -696 602 -930 l66 -71 79 0 79 0 0 690 0
690 -52 -1 c-29 -1 -66 -4 -83 -6z"/>
<path d="M7401 3203 c-35 -65 -140 -268 -234 -452 l-170 -334 84 6 c92 6 145
24 314 109 182 92 379 232 583 416 l84 75 -39 24 c-158 97 -509 273 -545 273
-8 0 -42 -53 -77 -117z"/>
<path d="M4500 3276 c-165 -72 -511 -259 -509 -274 0 -4 37 -39 82 -78 271
-237 472 -370 711 -473 74 -31 114 -42 176 -47 44 -4 80 -4 80 0 0 18 -437
873 -459 898 -3 4 -40 -8 -81 -26z"/>
<path d="M4689 1217 c-107 -31 -201 -115 -240 -216 -27 -71 -37 -226 -19 -302
50 -211 237 -326 474 -292 145 21 241 89 299 211 31 65 32 72 32 197 0 112 -3
138 -23 187 -32 79 -99 150 -179 190 -61 30 -74 32 -182 35 -73 2 -133 -2
-162 -10z m193 -137 c49 -14 93 -52 121 -104 19 -35 22 -57 22 -156 0 -101 -3
-121 -24 -163 -34 -70 -79 -100 -156 -105 -137 -9 -215 86 -215 262 0 137 48
230 135 261 49 17 69 18 117 5z"/>
<path d="M320 1145 l0 -75 135 0 135 0 0 -325 0 -325 100 0 100 0 2 323 3 322
133 3 132 3 0 74 0 75 -370 0 -370 0 0 -75z"/>
<path d="M1170 820 l0 -400 105 0 105 0 0 170 0 170 155 0 155 0 0 -170 0
-170 100 0 100 0 0 400 0 400 -100 0 -100 0 0 -155 0 -155 -155 0 -155 0 0
155 0 155 -105 0 -105 0 0 -400z"/>
<path d="M2100 820 l0 -400 285 0 285 0 0 75 0 75 -182 2 -183 3 0 90 0 90
168 3 167 2 0 75 0 75 -167 2 -168 3 0 75 0 75 178 3 177 2 0 75 0 75 -280 0
-280 0 0 -400z"/>
<path d="M3180 1208 c0 -7 41 -188 92 -401 l92 -388 120 3 120 3 70 298 c38
163 73 294 77 290 3 -5 37 -140 75 -300 l69 -293 120 0 120 0 89 383 c49 210
92 390 94 400 4 15 -5 17 -91 17 l-96 0 -10 -37 c-6 -21 -33 -135 -61 -253
-80 -338 -67 -321 -110 -140 -21 85 -52 217 -70 293 l-32 137 -98 0 c-85 0
-99 -2 -104 -17 -2 -10 -33 -138 -67 -285 -35 -148 -65 -268 -69 -268 -3 0
-34 120 -68 268 -35 147 -66 275 -68 285 -5 15 -18 17 -100 17 -68 0 -94 -3
-94 -12z"/>
<path d="M5400 820 l0 -400 105 0 105 0 0 150 0 150 53 0 c85 0 105 -19 181
-169 l67 -131 104 0 c58 0 105 2 105 4 0 1 -23 52 -51 112 -68 144 -112 210
-155 236 l-35 21 48 27 c67 38 96 92 97 179 1 121 -59 186 -193 211 -29 5
-139 10 -242 10 l-189 0 0 -400z m373 239 c30 -14 47 -48 47 -95 0 -73 -45
-104 -150 -104 l-60 0 0 105 0 105 70 0 c38 0 80 -5 93 -11z"/>
<path d="M6260 820 l0 -400 285 0 285 0 0 75 0 75 -185 0 -185 0 0 325 0 325
-100 0 -100 0 0 -400z"/>
<path d="M6960 821 l0 -401 184 0 c281 0 394 31 480 132 129 150 122 411 -14
546 -94 93 -163 112 -437 119 l-213 6 0 -402z m417 219 c87 -38 125 -105 126
-221 1 -163 -92 -249 -270 -249 l-63 0 0 251 0 252 82 -7 c45 -4 101 -15 125
-26z"/>
<path d="M8270 820 l0 -400 217 0 c169 0 229 4 274 16 70 20 133 70 149 119
13 38 15 132 5 167 -12 38 -54 87 -92 107 l-36 18 31 18 c105 63 94 254 -19
312 -64 33 -141 43 -346 43 l-183 0 0 -400z m374 249 c49 -23 58 -97 16 -139
-17 -17 -34 -20 -105 -20 l-85 0 0 85 0 85 75 0 c41 0 85 -5 99 -11z m21 -314
c37 -18 55 -51 55 -100 0 -71 -60 -104 -187 -105 l-63 0 0 110 0 110 81 0 c52
0 92 -5 114 -15z"/>
<path d="M9305 1208 c-2 -7 -68 -184 -145 -392 -77 -209 -140 -383 -140 -388
0 -4 44 -8 99 -8 l99 0 25 68 25 67 165 3 164 2 24 -67 24 -68 104 -3 c81 -2
102 0 99 10 -3 7 -70 187 -149 401 l-143 387 -124 0 c-89 0 -124 -3 -127 -12z
m184 -332 c28 -82 51 -153 51 -157 0 -5 -50 -9 -111 -9 -102 0 -111 1 -104 18
4 9 26 73 50 142 49 143 56 162 61 158 1 -2 25 -70 53 -152z"/>
<path d="M9960 820 l0 -400 100 0 100 0 2 271 3 272 143 -272 144 -271 114 0
114 0 0 400 0 400 -95 0 -95 0 -2 -275 -3 -275 -145 275 -145 275 -117 0 -118
0 0 -400z"/>
<path d="M10890 820 l0 -400 105 0 105 0 0 157 0 158 158 -158 157 -157 130 0
130 1 -214 208 -214 208 194 191 194 191 -120 1 -120 0 -147 -147 -148 -148 0
148 0 147 -105 0 -105 0 0 -400z"/>
</g>
</svg>
